<svg width="30" height="8" viewBox="0 0 30 8" fill="none" xmlns="http://www.w3.org/2000/svg">
<g clip-path="url(#clip0_138_2)">
<path d="M4.22403 2.28401C4.23203 2.30001 4.23603 2.31601 4.23603 2.33201C4.23603 2.34001 4.24003 2.35201 4.24803 2.36801C4.26403 2.40001 4.26003 2.43201 4.23603 2.46401C4.21203 2.49601 4.18803 2.50401 4.16403 2.48801C4.08403 2.47201 4.00403 2.44801 3.92403 2.41601C3.84403 2.37601 3.76403 2.34001 3.68403 2.30801C3.60403 2.27601 3.52403 2.25201 3.44403 2.23601C3.36403 2.22001 3.28803 2.22401 3.21603 2.24801C3.05603 2.29601 2.88803 2.37201 2.71203 2.47601C2.54403 2.58001 2.37603 2.71201 2.20803 2.87201C2.04803 3.02401 1.89603 3.20401 1.75203 3.41201C1.61603 3.62001 1.50003 3.85201 1.40403 4.10801C1.28403 4.46001 1.24803 4.79201 1.29603 5.10401C1.34403 5.40801 1.45203 5.66401 1.62003 5.87201C1.79603 6.08001 2.02003 6.23201 2.29203 6.32801C2.57203 6.41601 2.88803 6.42401 3.24003 6.35201C3.49603 6.29601 3.74003 6.20401 3.97203 6.07601C4.20403 5.94801 4.42003 5.81601 4.62003 5.68001C4.58003 5.74401 4.54403 5.80001 4.51203 5.84801C4.48003 5.89601 4.43203 5.95201 4.36803 6.01601C4.32803 6.05601 4.28803 6.11201 4.24803 6.18401C4.20803 6.24801 4.16803 6.30001 4.12803 6.34001C3.84803 6.64401 3.50803 6.86401 3.10803 7.00001C3.02003 7.03201 2.94403 7.04801 2.88003 7.04801C2.81603 7.05601 2.74003 7.06801 2.65203 7.08401C2.52403 7.08401 2.39603 7.08801 2.26803 7.09601C2.14003 7.10401 2.01603 7.08801 1.89603 7.04801C1.54403 6.92801 1.24403 6.69601 0.99603 6.35201C0.88403 6.20001 0.78803 6.01601 0.70803 5.80001C0.63603 5.57601 0.58803 5.34401 0.56403 5.10401C0.54803 4.85601 0.55603 4.61201 0.58803 4.37201C0.62003 4.13201 0.68803 3.90801 0.79203 3.70001C1.00803 3.23601 1.26403 2.82001 1.56003 2.45201C1.86403 2.08401 2.22403 1.82801 2.64003 1.68401C2.92003 1.58001 3.25603 1.57201 3.64803 1.66001C3.74403 1.70001 3.85203 1.78001 3.97203 1.90001C4.01203 1.94001 4.05203 1.98001 4.09203 2.02001C4.13203 2.06001 4.17203 2.11601 4.21203 2.18801C4.22003 2.20401 4.22003 2.22001 4.21203 2.23601C4.21203 2.25201 4.21603 2.26801 4.22403 2.28401ZM8.46134 3.77201C8.46134 4.33201 8.46534 4.85201 8.47334 5.33201C8.48934 5.81201 8.53734 6.28401 8.61734 6.74801C8.62534 6.79601 8.61334 6.84801 8.58134 6.90401C8.54934 6.96001 8.51734 7.00801 8.48534 7.04801C8.43734 7.10401 8.39334 7.15601 8.35334 7.20401C8.31334 7.26001 8.27334 7.29601 8.23334 7.31201C8.15334 7.35201 8.10534 7.36001 8.08934 7.33601C8.07334 7.31201 8.06134 7.28001 8.05334 7.24001C8.02134 7.08801 7.97734 6.88401 7.92134 6.62801C7.87334 6.36401 7.84134 6.10001 7.82534 5.83601C7.72934 5.99601 7.62134 6.16001 7.50134 6.32801C7.38934 6.48801 7.26534 6.63601 7.12934 6.77201C7.00134 6.90801 6.86934 7.02801 6.73334 7.13201C6.59734 7.24401 6.46534 7.32401 6.33734 7.37201C6.28134 7.39601 6.24134 7.40001 6.21734 7.38401C6.20134 7.36801 6.16934 7.35201 6.12134 7.33601C6.04934 7.30401 5.97734 7.27201 5.90534 7.24001C5.84134 7.21601 5.78934 7.17601 5.74934 7.12001C5.66134 6.96801 5.58934 6.82001 5.53334 6.67601C5.44534 6.44401 5.38934 6.20001 5.36534 5.94401C5.34934 5.68801 5.34934 5.43201 5.36534 5.17601C5.38134 4.92001 5.40934 4.67201 5.44934 4.43201C5.48934 4.19201 5.52934 3.97201 5.56934 3.77201C5.57734 3.73201 5.59734 3.70801 5.62934 3.70001C5.66134 3.68401 5.68134 3.65601 5.68934 3.61601C5.70534 3.55201 5.73334 3.50801 5.77334 3.48401C5.82134 3.46001 5.86934 3.44001 5.91734 3.42401C5.98134 3.40801 6.02934 3.39601 6.06134 3.38801C6.10134 3.37201 6.15334 3.36401 6.21734 3.36401C6.14534 3.59601 6.08934 3.86001 6.04934 4.15601C6.00934 4.45201 5.98934 4.75601 5.98934 5.06801C5.99734 5.37201 6.02534 5.66801 6.07334 5.95601C6.12934 6.24401 6.20934 6.49601 6.31334 6.71201C6.46534 6.60801 6.61334 6.48001 6.75734 6.32801C6.90934 6.17601 7.04934 6.02001 7.17734 5.86001C7.30534 5.69201 7.41734 5.53201 7.51334 5.38001C7.61734 5.22801 7.69334 5.10001 7.74134 4.99601C7.78934 4.83601 7.81734 4.65601 7.82534 4.45601C7.84134 4.24801 7.84934 4.06401 7.84934 3.90401C7.84134 3.83201 7.84534 3.77601 7.86134 3.73601C7.88534 3.69601 7.90934 3.65201 7.93334 3.60401C7.94934 3.58001 7.95734 3.55601 7.95734 3.53201C7.96534 3.50801 7.98134 3.48801 8.00534 3.47201C8.02134 3.45601 8.03734 3.43601 8.05334 3.41201C8.07734 3.38001 8.10134 3.36401 8.12534 3.36401C8.17334 3.36401 8.20534 3.38801 8.22134 3.43601C8.23734 3.48401 8.26134 3.52001 8.29334 3.54401C8.33334 3.58401 8.36934 3.61601 8.40134 3.64001C8.44134 3.65601 8.46134 3.70001 8.46134 3.77201ZM12.3834 3.74801C12.3434 3.86801 12.3114 3.96001 12.2874 4.02401C12.2634 4.08801 12.2274 4.09601 12.1794 4.04801C12.0674 3.93601 11.9314 3.81601 11.7714 3.68801C11.6114 3.56001 11.4154 3.48001 11.1834 3.44801C11.0314 3.43201 10.8674 3.45201 10.6914 3.50801C10.5234 3.55601 10.3954 3.66401 10.3074 3.83201C10.2274 3.97601 10.2154 4.14801 10.2714 4.34801C10.3194 4.55601 10.4234 4.70801 10.5834 4.80401C10.7514 4.89201 10.9354 4.96401 11.1354 5.02001C11.3434 5.06801 11.5514 5.11201 11.7594 5.15201C11.9754 5.19201 12.1594 5.26401 12.3114 5.36801C12.3594 5.39201 12.3954 5.43201 12.4194 5.48801C12.4514 5.53601 12.4834 5.58001 12.5154 5.62001C12.5554 5.66801 12.5914 5.70801 12.6234 5.74001C12.6634 5.77201 12.6994 5.82001 12.7314 5.88401C12.7554 5.93201 12.7834 5.99201 12.8154 6.06401C12.8474 6.12801 12.8554 6.20001 12.8394 6.28001C12.8154 6.38401 12.7154 6.49601 12.5394 6.61601C12.1554 6.86401 11.7514 7.06001 11.3274 7.20401C10.9034 7.35601 10.4554 7.38401 9.98347 7.28801C9.92747 7.27201 9.86347 7.21601 9.79147 7.12001C9.71947 7.03201 9.65947 6.97201 9.61147 6.94001C9.48347 6.86801 9.39547 6.77601 9.34747 6.66401C9.28347 6.45601 9.25147 6.22801 9.25147 5.98001C9.25147 5.90001 9.26347 5.86401 9.28747 5.87201C9.31947 5.87201 9.34747 5.87201 9.37147 5.87201C9.41947 5.87201 9.47147 5.90401 9.52747 5.96801C9.59147 6.03201 9.65547 6.10801 9.71947 6.19601C9.79147 6.27601 9.85547 6.35201 9.91147 6.42401C9.97547 6.48801 10.0274 6.52001 10.0674 6.52001C10.2034 6.58401 10.3674 6.62001 10.5594 6.62801C10.7514 6.63601 10.9434 6.62001 11.1354 6.58001C11.3354 6.53201 11.5194 6.46001 11.6874 6.36401C11.8634 6.26001 12.0034 6.13201 12.1074 5.98001C12.1074 5.94001 12.0594 5.89201 11.9634 5.83601C11.8754 5.78001 11.7594 5.72001 11.6154 5.65601C11.4714 5.58401 11.3114 5.51201 11.1354 5.44001C10.9674 5.36801 10.8034 5.29201 10.6434 5.21201C10.4914 5.13201 10.3554 5.04801 10.2354 4.96001C10.1234 4.87201 10.0474 4.78401 10.0074 4.69601C9.98347 4.63201 9.95547 4.56801 9.92347 4.50401C9.89147 4.43201 9.87147 4.38001 9.86347 4.34801C9.82347 4.17201 9.81547 4.00401 9.83947 3.84401C9.86347 3.67601 9.91147 3.52801 9.98347 3.40001C10.0554 3.27201 10.1514 3.16801 10.2714 3.08801C10.3914 3.00001 10.5274 2.94401 10.6794 2.92001C10.9194 2.88801 11.1754 2.88801 11.4474 2.92001C11.7274 2.94401 11.9754 3.03601 12.1914 3.19601C12.2554 3.25201 12.2994 3.30401 12.3234 3.35201C12.3554 3.40001 12.3794 3.45601 12.3954 3.52001C12.4034 3.56001 12.4114 3.60001 12.4194 3.64001C12.4274 3.67201 12.4154 3.70801 12.3834 3.74801ZM17.7696 4.34801C17.7856 4.36401 17.7976 4.37201 17.8056 4.37201C17.8136 4.37201 17.8176 4.38001 17.8176 4.39601C17.8096 4.41201 17.7896 4.43201 17.7576 4.45601C17.7336 4.47201 17.6856 4.48401 17.6136 4.49201C17.5896 4.50001 17.5576 4.51601 17.5176 4.54001C17.4776 4.55601 17.4456 4.56801 17.4216 4.57601C17.2056 4.62401 16.9496 4.66801 16.6536 4.70801C16.3656 4.74801 16.0656 4.78401 15.7536 4.81601C15.7376 5.09601 15.7296 5.35601 15.7296 5.59601C15.7376 5.83601 15.7496 6.04401 15.7656 6.22001C15.7816 6.35601 15.8456 6.42401 15.9576 6.42401C16.0696 6.41601 16.1856 6.39201 16.3056 6.35201C16.3376 6.34401 16.4216 6.30801 16.5576 6.24401C16.7016 6.17201 16.8656 6.09201 17.0496 6.00401C17.2416 5.90801 17.4416 5.80801 17.6496 5.70401C17.8576 5.59201 18.0456 5.49201 18.2136 5.40401C18.2136 5.51601 18.1536 5.62401 18.0336 5.72801C17.9696 5.78401 17.8976 5.83601 17.8176 5.88401C17.7456 5.93201 17.6696 5.98401 17.5896 6.04001C17.5016 6.09601 17.4416 6.15601 17.4096 6.22001C17.3776 6.28401 17.3056 6.35201 17.1936 6.42401C16.9856 6.56001 16.7616 6.68401 16.5216 6.79601C16.2816 6.90801 16.0656 6.98801 15.8736 7.03601C15.8096 7.05201 15.7416 7.06001 15.6696 7.06001C15.6056 7.06001 15.5416 7.07201 15.4776 7.09601C15.3816 7.13601 15.3056 7.12801 15.2496 7.07201C15.2016 7.01601 15.1696 6.93601 15.1536 6.83201C15.1216 6.53601 15.0976 6.22001 15.0816 5.88401C15.0736 5.54801 15.0736 5.20801 15.0816 4.86401C14.8416 4.88001 14.6176 4.88801 14.4096 4.88801C14.2096 4.88001 14.0456 4.86401 13.9176 4.84001C13.7976 4.82401 13.6856 4.80001 13.5816 4.76801C13.4856 4.72801 13.3976 4.66801 13.3176 4.58801C13.2456 4.58801 13.2216 4.55601 13.2456 4.49201C13.2776 4.42001 13.3016 4.36001 13.3176 4.31201C13.4856 4.30401 13.7296 4.29601 14.0496 4.28801C14.3776 4.27201 14.7296 4.25601 15.1056 4.24001C15.1376 3.57601 15.1936 2.96001 15.2736 2.39201C15.3536 1.82401 15.4496 1.40001 15.5616 1.12001C15.5616 1.04801 15.5896 1.00001 15.6456 0.97601C15.7096 0.94401 15.7736 0.90801 15.8376 0.86801C15.8696 0.85201 15.9016 0.83201 15.9336 0.80801C15.9736 0.77601 16.0256 0.76001 16.0896 0.76001C16.1616 0.800009 16.2136 0.836009 16.2456 0.86801C16.2776 0.89201 16.2936 0.92401 16.2936 0.96401C16.2936 1.00401 16.2816 1.05201 16.2576 1.10801C16.2336 1.16401 16.2056 1.23601 16.1736 1.32401C16.1576 1.34801 16.1336 1.44801 16.1016 1.62401C16.0696 1.80001 16.0336 2.02401 15.9936 2.29601C15.9616 2.56001 15.9256 2.86401 15.8856 3.20801C15.8456 3.54401 15.8136 3.88401 15.7896 4.22801C16.0536 4.22801 16.3056 4.23201 16.5456 4.24001C16.7856 4.24001 16.9976 4.24801 17.1816 4.26401L17.7696 4.34801ZM20.0034 3.53201L19.7994 3.73601C19.8634 3.72801 19.9594 3.71201 20.0874 3.68801C20.2234 3.65601 20.3554 3.64001 20.4834 3.64001C20.5794 3.65601 20.6594 3.68801 20.7234 3.73601C20.7874 3.78401 20.8274 3.87601 20.8434 4.01201C20.8754 4.20401 20.9234 4.40001 20.9874 4.60001C21.0594 4.79201 21.1114 4.98401 21.1434 5.17601C21.1834 5.36801 21.1834 5.55201 21.1434 5.72801C21.1034 5.89601 20.9954 6.04801 20.8194 6.18401C20.6354 6.46401 20.4314 6.70001 20.2074 6.89201C19.9914 7.07601 19.7634 7.18401 19.5234 7.21601C19.3634 7.24001 19.1874 7.21601 18.9954 7.14401C18.8034 7.08001 18.6634 6.96401 18.5754 6.79601C18.5514 6.81201 18.5314 6.81601 18.5154 6.80801C18.4994 6.79201 18.4834 6.77601 18.4674 6.76001C18.4514 6.74401 18.4354 6.74001 18.4194 6.74801C18.4114 6.75601 18.4034 6.75201 18.3954 6.73601C18.3874 6.71201 18.3834 6.68001 18.3834 6.64001V6.61601V6.59201C18.3914 6.31201 18.4154 6.03201 18.4554 5.75201C18.5034 5.46401 18.5714 5.18801 18.6594 4.92401C18.7554 4.65201 18.8754 4.40001 19.0194 4.16801C19.1714 3.92801 19.3634 3.71601 19.5954 3.53201C19.6754 3.48401 19.7634 3.46801 19.8594 3.48401C19.8754 3.48401 19.8954 3.48401 19.9194 3.48401C19.9434 3.48401 19.9714 3.50001 20.0034 3.53201ZM19.5954 4.34801C19.5474 4.34001 19.5194 4.32401 19.5114 4.30001C19.5034 4.27601 19.5034 4.24801 19.5114 4.21601C19.5274 4.17601 19.5434 4.13201 19.5594 4.08401C19.5834 4.03601 19.5954 3.98801 19.5954 3.94001C19.4274 4.09201 19.2954 4.27601 19.1994 4.49201C19.1114 4.70801 19.0474 4.93201 19.0074 5.16401C18.9674 5.38801 18.9474 5.60801 18.9474 5.82401C18.9554 6.04001 18.9674 6.22801 18.9834 6.38801C18.9994 6.52401 19.0274 6.63601 19.0674 6.72401C19.1074 6.80401 19.1674 6.85201 19.2474 6.86801C19.3354 6.89201 19.4514 6.86801 19.5954 6.79601C19.8034 6.69201 19.9714 6.54801 20.0994 6.36401C20.2274 6.18001 20.3314 5.98401 20.4114 5.77601C20.4434 5.66401 20.4674 5.53201 20.4834 5.38001C20.5074 5.22001 20.5034 5.07201 20.4714 4.93601C20.4314 4.75201 20.3274 4.62001 20.1594 4.54001C19.9994 4.45201 19.8114 4.38801 19.5954 4.34801ZM25.6439 3.12401C25.6439 3.19601 25.6559 3.28801 25.6799 3.40001C25.7039 3.50401 25.6959 3.58801 25.6559 3.65201C25.6399 3.66801 25.6319 3.70001 25.6319 3.74801C25.6319 3.78801 25.6199 3.81601 25.5959 3.83201L25.4399 3.73601C25.3119 3.67201 25.1679 3.64401 25.0079 3.65201C24.8559 3.66001 24.6999 3.69601 24.5399 3.76001C24.4279 3.80801 24.3159 3.87601 24.2039 3.96401C24.0999 4.04401 23.9999 4.13601 23.9039 4.24001C23.8079 4.34401 23.7199 4.45201 23.6399 4.56401C23.5599 4.67601 23.4919 4.78401 23.4359 4.88801C23.3079 5.12001 23.2439 5.40001 23.2439 5.72801C23.2519 6.05601 23.3719 6.48001 23.6039 7.00001C23.6039 7.05601 23.5639 7.12401 23.4839 7.20401C23.4679 7.22001 23.4479 7.24401 23.4239 7.27601C23.3999 7.30801 23.3799 7.33201 23.3639 7.34801C23.2999 7.40401 23.2599 7.45201 23.2439 7.49201C23.2359 7.53201 23.2119 7.56001 23.1719 7.57601C23.1079 7.60001 23.0479 7.54401 22.9919 7.40801C22.8559 7.16801 22.7239 6.87601 22.5959 6.53201C22.4759 6.18001 22.3599 5.82001 22.2479 5.45201C22.1439 5.08401 22.0479 4.73201 21.9599 4.39601C21.8799 4.05201 21.8159 3.76401 21.7679 3.53201C21.7439 3.46801 21.7399 3.40801 21.7559 3.35201C21.7719 3.28801 21.7959 3.23601 21.8279 3.19601C21.8519 3.16401 21.8799 3.15601 21.9119 3.17201C21.9519 3.18801 21.9839 3.19601 22.0079 3.19601C22.1119 3.19601 22.1759 3.21601 22.1999 3.25601C22.2239 3.29601 22.2639 3.34801 22.3199 3.41201C22.4319 3.54001 22.5199 3.71201 22.5839 3.92801C22.6479 4.14401 22.7279 4.40001 22.8239 4.69601C22.9519 4.48001 23.1159 4.27201 23.3159 4.07201C23.5239 3.87201 23.7479 3.69201 23.9879 3.53201C24.2279 3.36401 24.4759 3.22801 24.7319 3.12401C24.9879 3.02001 25.2359 2.95601 25.4759 2.93201C25.5239 2.92401 25.5639 2.94001 25.5959 2.98001C25.6359 3.01201 25.6519 3.06001 25.6439 3.12401ZM28.9481 3.30401C29.0041 3.36001 29.0561 3.42401 29.1041 3.49601C29.1521 3.56001 29.1921 3.62801 29.2241 3.70001C29.2881 3.85201 29.3201 4.00401 29.3201 4.15601C29.3281 4.30001 29.2721 4.47601 29.1521 4.68401C29.0161 4.90801 28.8401 5.09601 28.6241 5.24801C28.4161 5.40001 28.1881 5.49601 27.9401 5.53601C27.7641 5.56801 27.5881 5.56801 27.4121 5.53601C27.2361 5.49601 27.0681 5.41601 26.9081 5.29601C26.8601 5.33601 26.8201 5.39601 26.7881 5.47601C26.7641 5.54801 26.7561 5.61601 26.7641 5.68001C26.7801 5.79201 26.8201 5.91601 26.8841 6.05201C26.9561 6.18001 27.0321 6.26801 27.1121 6.31601C27.2481 6.37201 27.4361 6.37601 27.6761 6.32801C27.9241 6.28001 28.1841 6.20801 28.4561 6.11201C28.7361 6.00801 29.0081 5.89601 29.2721 5.77601C29.5441 5.64801 29.7761 5.54001 29.9681 5.45201C29.9681 5.50001 29.9561 5.53201 29.9321 5.54801C29.9161 5.56401 29.8921 5.59201 29.8601 5.63201C29.8201 5.67201 29.7761 5.72001 29.7281 5.77601C29.6801 5.83201 29.6241 5.88001 29.5601 5.92001C29.4801 5.96801 29.4201 6.03201 29.3801 6.11201C29.3401 6.18401 29.2641 6.25201 29.1521 6.31601C29.0001 6.39601 28.8441 6.48001 28.6841 6.56801C28.5321 6.64801 28.3801 6.72401 28.2281 6.79601C28.0761 6.86001 27.9201 6.91201 27.7601 6.95201C27.6081 6.98401 27.4561 6.99201 27.3041 6.97601C27.2001 6.96001 27.1121 6.93201 27.0401 6.89201C26.9761 6.85201 26.8961 6.79201 26.8001 6.71201C26.7521 6.67201 26.6961 6.63201 26.6321 6.59201C26.5681 6.55201 26.5201 6.51201 26.4881 6.47201C26.3521 6.27201 26.2601 6.06001 26.2121 5.83601C26.1641 5.60401 26.1521 5.37601 26.1761 5.15201C26.2081 4.92001 26.2681 4.69601 26.3561 4.48001C26.4441 4.25601 26.5601 4.05201 26.7041 3.86801C26.7841 3.76401 26.8801 3.66001 26.9921 3.55601C27.1121 3.44401 27.2401 3.34801 27.3761 3.26801C27.5201 3.18001 27.6681 3.11201 27.8201 3.06401C27.9801 3.01601 28.1401 2.99601 28.3001 3.00401C28.3641 3.01201 28.4201 3.03201 28.4681 3.06401C28.5241 3.08801 28.5841 3.11601 28.6481 3.14801C28.6881 3.16401 28.7361 3.18801 28.7921 3.22001C28.8561 3.24401 28.9081 3.27201 28.9481 3.30401ZM28.6001 4.01201C28.5841 3.94001 28.5401 3.87601 28.4681 3.82001C28.3961 3.76401 28.3161 3.72001 28.2281 3.68801C28.1401 3.64801 28.0521 3.62401 27.9641 3.61601C27.8761 3.60801 27.8121 3.61201 27.7721 3.62801C27.7081 3.65201 27.6321 3.69601 27.5441 3.76001C27.4641 3.81601 27.3841 3.88401 27.3041 3.96401C27.2321 4.04401 27.1601 4.13201 27.0881 4.22801C27.0241 4.31601 26.9761 4.40001 26.9441 4.48001C26.9281 4.50401 26.9121 4.54401 26.8961 4.60001C26.8881 4.64801 26.8921 4.68401 26.9081 4.70801C27.0041 4.82801 27.1481 4.88801 27.3401 4.88801C27.5241 4.88801 27.7201 4.84401 27.9281 4.75601C28.1441 4.66801 28.2961 4.57601 28.3841 4.48001C28.3921 4.46401 28.4081 4.43601 28.4321 4.39601C28.4641 4.35601 28.4921 4.31201 28.5161 4.26401C28.5401 4.21601 28.5601 4.16801 28.5761 4.12001C28.6001 4.07201 28.6081 4.03601 28.6001 4.01201Z" fill="white"/>
</g>
<defs>
<clipPath id="clip0_138_2">
<rect width="30" height="8" fill="white"/>
</clipPath>
</defs>
</svg>
