<svg width="30" height="8" viewBox="0 0 30 8" fill="currentColor" xmlns="http://www.w3.org/2000/svg">
<path d="M4.224 2.284C4.232 2.3 4.236 2.316 4.236 2.332C4.236 2.34 4.24 2.352 4.248 2.368C4.264 2.4 4.26 2.432 4.236 2.464C4.212 2.496 4.188 2.504 4.164 2.488C4.084 2.472 4.004 2.448 3.924 2.416C3.844 2.376 3.764 2.34 3.684 2.308C3.604 2.276 3.524 2.252 3.444 2.236C3.364 2.22 3.288 2.224 3.216 2.248C3.056 2.296 2.888 2.372 2.712 2.476C2.544 2.58 2.376 2.712 2.208 2.872C2.048 3.024 1.896 3.204 1.752 3.412C1.616 3.62 1.5 3.852 1.404 4.108C1.284 4.46 1.248 4.792 1.296 5.104C1.344 5.408 1.452 5.664 1.62 5.872C1.796 6.08 2.02 6.232 2.292 6.328C2.572 6.416 2.888 6.424 3.24 6.352C3.496 6.296 3.74 6.204 3.972 6.076C4.204 5.948 4.42 5.816 4.62 5.68C4.58 5.744 4.544 5.8 4.512 5.848C4.48 5.896 4.432 5.952 4.368 6.016C4.328 6.056 4.288 6.112 4.248 6.184C4.208 6.248 4.168 6.3 4.128 6.34C3.848 6.644 3.508 6.864 3.108 7C3.02 7.032 2.944 7.048 2.88 7.048C2.816 7.056 2.74 7.068 2.652 7.084C2.524 7.084 2.396 7.088 2.268 7.096C2.14 7.104 2.016 7.088 1.896 7.048C1.544 6.928 1.244 6.696 0.996 6.352C0.884 6.2 0.788 6.016 0.708 5.8C0.636 5.576 0.588 5.344 0.564 5.104C0.548 4.856 0.556 4.612 0.588 4.372C0.62 4.132 0.688 3.908 0.792 3.7C1.008 3.236 1.264 2.82 1.56 2.452C1.864 2.084 2.224 1.828 2.64 1.684C2.92 1.58 3.256 1.572 3.648 1.66C3.744 1.7 3.852 1.78 3.972 1.9C4.012 1.94 4.052 1.98 4.092 2.02C4.132 2.06 4.172 2.116 4.212 2.188C4.22 2.204 4.22 2.22 4.212 2.236C4.212 2.252 4.216 2.268 4.224 2.284ZM8.46131 3.772C8.46131 4.332 8.46531 4.852 8.47331 5.332C8.48931 5.812 8.53731 6.284 8.61731 6.748C8.62531 6.796 8.61331 6.848 8.58131 6.904C8.54931 6.96 8.51731 7.008 8.48531 7.048C8.43731 7.104 8.39331 7.156 8.35331 7.204C8.31331 7.26 8.27331 7.296 8.23331 7.312C8.15331 7.352 8.10531 7.36 8.08931 7.336C8.07331 7.312 8.06131 7.28 8.05331 7.24C8.02131 7.088 7.97731 6.884 7.92131 6.628C7.87331 6.364 7.84131 6.1 7.82531 5.836C7.72931 5.996 7.62131 6.16 7.50131 6.328C7.38931 6.488 7.26531 6.636 7.12931 6.772C7.00131 6.908 6.86931 7.028 6.73331 7.132C6.59731 7.244 6.46531 7.324 6.33731 7.372C6.28131 7.396 6.24131 7.4 6.21731 7.384C6.20131 7.368 6.16931 7.352 6.12131 7.336C6.04931 7.304 5.97731 7.272 5.90531 7.24C5.84131 7.216 5.78931 7.176 5.74931 7.12C5.66131 6.968 5.58931 6.82 5.53331 6.676C5.44531 6.444 5.38931 6.2 5.36531 5.944C5.34931 5.688 5.34931 5.432 5.36531 5.176C5.38131 4.92 5.40931 4.672 5.44931 4.432C5.48931 4.192 5.52931 3.972 5.56931 3.772C5.57731 3.732 5.59731 3.708 5.62931 3.7C5.66131 3.684 5.68131 3.656 5.68931 3.616C5.70531 3.552 5.73331 3.508 5.77331 3.484C5.82131 3.46 5.86931 3.44 5.91731 3.424C5.98131 3.408 6.02931 3.396 6.06131 3.388C6.10131 3.372 6.15331 3.364 6.21731 3.364C6.14531 3.596 6.08931 3.86 6.04931 4.156C6.00931 4.452 5.98931 4.756 5.98931 5.068C5.99731 5.372 6.02531 5.668 6.07331 5.956C6.12931 6.244 6.20931 6.496 6.31331 6.712C6.46531 6.608 6.61331 6.48 6.75731 6.328C6.90931 6.176 7.04931 6.02 7.17731 5.86C7.30531 5.692 7.41731 5.532 7.51331 5.38C7.61731 5.228 7.69331 5.1 7.74131 4.996C7.78931 4.836 7.81731 4.656 7.82531 4.456C7.84131 4.248 7.84931 4.064 7.84931 3.904C7.84131 3.832 7.84531 3.776 7.86131 3.736C7.88531 3.696 7.90931 3.652 7.93331 3.604C7.94931 3.58 7.95731 3.556 7.95731 3.532C7.96531 3.508 7.98131 3.488 8.00531 3.472C8.02131 3.456 8.03731 3.436 8.05331 3.412C8.07731 3.38 8.10131 3.364 8.12531 3.364C8.17331 3.364 8.20531 3.388 8.22131 3.436C8.23731 3.484 8.26131 3.52 8.29331 3.544C8.33331 3.584 8.36931 3.616 8.40131 3.64C8.44131 3.656 8.46131 3.7 8.46131 3.772ZM12.3834 3.748C12.3434 3.868 12.3114 3.96 12.2874 4.024C12.2634 4.088 12.2274 4.096 12.1794 4.048C12.0674 3.936 11.9314 3.816 11.7714 3.688C11.6114 3.56 11.4154 3.48 11.1834 3.448C11.0314 3.432 10.8674 3.452 10.6914 3.508C10.5234 3.556 10.3954 3.664 10.3074 3.832C10.2274 3.976 10.2154 4.148 10.2714 4.348C10.3194 4.556 10.4234 4.708 10.5834 4.804C10.7514 4.892 10.9354 4.964 11.1354 5.02C11.3434 5.068 11.5514 5.112 11.7594 5.152C11.9754 5.192 12.1594 5.264 12.3114 5.368C12.3594 5.392 12.3954 5.432 12.4194 5.488C12.4514 5.536 12.4834 5.58 12.5154 5.62C12.5554 5.668 12.5914 5.708 12.6234 5.74C12.6634 5.772 12.6994 5.82 12.7314 5.884C12.7554 5.932 12.7834 5.992 12.8154 6.064C12.8474 6.128 12.8554 6.2 12.8394 6.28C12.8154 6.384 12.7154 6.496 12.5394 6.616C12.1554 6.864 11.7514 7.06 11.3274 7.204C10.9034 7.356 10.4554 7.384 9.98344 7.288C9.92744 7.272 9.86344 7.216 9.79144 7.12C9.71944 7.032 9.65944 6.972 9.61144 6.94C9.48344 6.868 9.39544 6.776 9.34744 6.664C9.28344 6.456 9.25144 6.228 9.25144 5.98C9.25144 5.9 9.26344 5.864 9.28744 5.872C9.31944 5.872 9.34744 5.872 9.37144 5.872C9.41944 5.872 9.47144 5.904 9.52744 5.968C9.59144 6.032 9.65544 6.108 9.71944 6.196C9.79144 6.276 9.85544 6.352 9.91144 6.424C9.97544 6.488 10.0274 6.52 10.0674 6.52C10.2034 6.584 10.3674 6.62 10.5594 6.628C10.7514 6.636 10.9434 6.62 11.1354 6.58C11.3354 6.532 11.5194 6.46 11.6874 6.364C11.8634 6.26 12.0034 6.132 12.1074 5.98C12.1074 5.94 12.0594 5.892 11.9634 5.836C11.8754 5.78 11.7594 5.72 11.6154 5.656C11.4714 5.584 11.3114 5.512 11.1354 5.44C10.9674 5.368 10.8034 5.292 10.6434 5.212C10.4914 5.132 10.3554 5.048 10.2354 4.96C10.1234 4.872 10.0474 4.784 10.0074 4.696C9.98344 4.632 9.95544 4.568 9.92344 4.504C9.89144 4.432 9.87144 4.38 9.86344 4.348C9.82344 4.172 9.81544 4.004 9.83944 3.844C9.86344 3.676 9.91144 3.528 9.98344 3.4C10.0554 3.272 10.1514 3.168 10.2714 3.088C10.3914 3 10.5274 2.944 10.6794 2.92C10.9194 2.888 11.1754 2.888 11.4474 2.92C11.7274 2.944 11.9754 3.036 12.1914 3.196C12.2554 3.252 12.2994 3.304 12.3234 3.352C12.3554 3.4 12.3794 3.456 12.3954 3.52C12.4034 3.56 12.4114 3.6 12.4194 3.64C12.4274 3.672 12.4154 3.708 12.3834 3.748ZM17.7696 4.348C17.7856 4.364 17.7976 4.372 17.8056 4.372C17.8136 4.372 17.8176 4.38 17.8176 4.396C17.8096 4.412 17.7896 4.432 17.7576 4.456C17.7336 4.472 17.6856 4.484 17.6136 4.492C17.5896 4.5 17.5576 4.516 17.5176 4.54C17.4776 4.556 17.4456 4.568 17.4216 4.576C17.2056 4.624 16.9496 4.668 16.6536 4.708C16.3656 4.748 16.0656 4.784 15.7536 4.816C15.7376 5.096 15.7296 5.356 15.7296 5.596C15.7376 5.836 15.7496 6.044 15.7656 6.22C15.7816 6.356 15.8456 6.424 15.9576 6.424C16.0696 6.416 16.1856 6.392 16.3056 6.352C16.3376 6.344 16.4216 6.308 16.5576 6.244C16.7016 6.172 16.8656 6.092 17.0496 6.004C17.2416 5.908 17.4416 5.808 17.6496 5.704C17.8576 5.592 18.0456 5.492 18.2136 5.404C18.2136 5.516 18.1536 5.624 18.0336 5.728C17.9696 5.784 17.8976 5.836 17.8176 5.884C17.7456 5.932 17.6696 5.984 17.5896 6.04C17.5016 6.096 17.4416 6.156 17.4096 6.22C17.3776 6.284 17.3056 6.352 17.1936 6.424C16.9856 6.56 16.7616 6.684 16.5216 6.796C16.2816 6.908 16.0656 6.988 15.8736 7.036C15.8096 7.052 15.7416 7.06 15.6696 7.06C15.6056 7.06 15.5416 7.072 15.4776 7.096C15.3816 7.136 15.3056 7.128 15.2496 7.072C15.2016 7.016 15.1696 6.936 15.1536 6.832C15.1216 6.536 15.0976 6.22 15.0816 5.884C15.0736 5.548 15.0736 5.208 15.0816 4.864C14.8416 4.88 14.6176 4.888 14.4096 4.888C14.2096 4.88 14.0456 4.864 13.9176 4.84C13.7976 4.824 13.6856 4.8 13.5816 4.768C13.4856 4.728 13.3976 4.668 13.3176 4.588C13.2456 4.588 13.2216 4.556 13.2456 4.492C13.2776 4.42 13.3016 4.36 13.3176 4.312C13.4856 4.304 13.7296 4.296 14.0496 4.288C14.3776 4.272 14.7296 4.256 15.1056 4.24C15.1376 3.576 15.1936 2.96 15.2736 2.392C15.3536 1.824 15.4496 1.4 15.5616 1.12C15.5616 1.048 15.5896 1 15.6456 0.976C15.7096 0.944 15.7736 0.908 15.8376 0.868C15.8696 0.852 15.9016 0.832 15.9336 0.808C15.9736 0.776 16.0256 0.76 16.0896 0.76C16.1616 0.799999 16.2136 0.835999 16.2456 0.868C16.2776 0.892 16.2936 0.924 16.2936 0.964C16.2936 1.004 16.2816 1.052 16.2576 1.108C16.2336 1.164 16.2056 1.236 16.1736 1.324C16.1576 1.348 16.1336 1.448 16.1016 1.624C16.0696 1.8 16.0336 2.024 15.9936 2.296C15.9616 2.56 15.9256 2.864 15.8856 3.208C15.8456 3.544 15.8136 3.884 15.7896 4.228C16.0536 4.228 16.3056 4.232 16.5456 4.24C16.7856 4.24 16.9976 4.248 17.1816 4.264L17.7696 4.348ZM20.0034 3.532L19.7994 3.736C19.8634 3.728 19.9594 3.712 20.0874 3.688C20.2234 3.656 20.3554 3.64 20.4834 3.64C20.5794 3.656 20.6594 3.688 20.7234 3.736C20.7874 3.784 20.8274 3.876 20.8434 4.012C20.8754 4.204 20.9234 4.4 20.9874 4.6C21.0594 4.792 21.1114 4.984 21.1434 5.176C21.1834 5.368 21.1834 5.552 21.1434 5.728C21.1034 5.896 20.9954 6.048 20.8194 6.184C20.6354 6.464 20.4314 6.7 20.2074 6.892C19.9914 7.076 19.7634 7.184 19.5234 7.216C19.3634 7.24 19.1874 7.216 18.9954 7.144C18.8034 7.08 18.6634 6.964 18.5754 6.796C18.5514 6.812 18.5314 6.816 18.5154 6.808C18.4994 6.792 18.4834 6.776 18.4674 6.76C18.4514 6.744 18.4354 6.74 18.4194 6.748C18.4114 6.756 18.4034 6.752 18.3954 6.736C18.3874 6.712 18.3834 6.68 18.3834 6.64V6.616V6.592C18.3914 6.312 18.4154 6.032 18.4554 5.752C18.5034 5.464 18.5714 5.188 18.6594 4.924C18.7554 4.652 18.8754 4.4 19.0194 4.168C19.1714 3.928 19.3634 3.716 19.5954 3.532C19.6754 3.484 19.7634 3.468 19.8594 3.484C19.8754 3.484 19.8954 3.484 19.9194 3.484C19.9434 3.484 19.9714 3.5 20.0034 3.532ZM19.5954 4.348C19.5474 4.34 19.5194 4.324 19.5114 4.3C19.5034 4.276 19.5034 4.248 19.5114 4.216C19.5274 4.176 19.5434 4.132 19.5594 4.084C19.5834 4.036 19.5954 3.988 19.5954 3.94C19.4274 4.092 19.2954 4.276 19.1994 4.492C19.1114 4.708 19.0474 4.932 19.0074 5.164C18.9674 5.388 18.9474 5.608 18.9474 5.824C18.9554 6.04 18.9674 6.228 18.9834 6.388C18.9994 6.524 19.0274 6.636 19.0674 6.724C19.1074 6.804 19.1674 6.852 19.2474 6.868C19.3354 6.892 19.4514 6.868 19.5954 6.796C19.8034 6.692 19.9714 6.548 20.0994 6.364C20.2274 6.18 20.3314 5.984 20.4114 5.776C20.4434 5.664 20.4674 5.532 20.4834 5.38C20.5074 5.22 20.5034 5.072 20.4714 4.936C20.4314 4.752 20.3274 4.62 20.1594 4.54C19.9994 4.452 19.8114 4.388 19.5954 4.348ZM25.6439 3.124C25.6439 3.196 25.6559 3.288 25.6799 3.4C25.7039 3.504 25.6959 3.588 25.6559 3.652C25.6399 3.668 25.6319 3.7 25.6319 3.748C25.6319 3.788 25.6199 3.816 25.5959 3.832L25.4399 3.736C25.3119 3.672 25.1679 3.644 25.0079 3.652C24.8559 3.66 24.6999 3.696 24.5399 3.76C24.4279 3.808 24.3159 3.876 24.2039 3.964C24.0999 4.044 23.9999 4.136 23.9039 4.24C23.8079 4.344 23.7199 4.452 23.6399 4.564C23.5599 4.676 23.4919 4.784 23.4359 4.888C23.3079 5.12 23.2439 5.4 23.2439 5.728C23.2519 6.056 23.3719 6.48 23.6039 7C23.6039 7.056 23.5639 7.124 23.4839 7.204C23.4679 7.22 23.4479 7.244 23.4239 7.276C23.3999 7.308 23.3799 7.332 23.3639 7.348C23.2999 7.404 23.2599 7.452 23.2439 7.492C23.2359 7.532 23.2119 7.56 23.1719 7.576C23.1079 7.6 23.0479 7.544 22.9919 7.408C22.8559 7.168 22.7239 6.876 22.5959 6.532C22.4759 6.18 22.3599 5.82 22.2479 5.452C22.1439 5.084 22.0479 4.732 21.9599 4.396C21.8799 4.052 21.8159 3.764 21.7679 3.532C21.7439 3.468 21.7399 3.408 21.7559 3.352C21.7719 3.288 21.7959 3.236 21.8279 3.196C21.8519 3.164 21.8799 3.156 21.9119 3.172C21.9519 3.188 21.9839 3.196 22.0079 3.196C22.1119 3.196 22.1759 3.216 22.1999 3.256C22.2239 3.296 22.2639 3.348 22.3199 3.412C22.4319 3.54 22.5199 3.712 22.5839 3.928C22.6479 4.144 22.7279 4.4 22.8239 4.696C22.9519 4.48 23.1159 4.272 23.3159 4.072C23.5239 3.872 23.7479 3.692 23.9879 3.532C24.2279 3.364 24.4759 3.228 24.7319 3.124C24.9879 3.02 25.2359 2.956 25.4759 2.932C25.5239 2.924 25.5639 2.94 25.5959 2.98C25.6359 3.012 25.6519 3.06 25.6439 3.124ZM28.9481 3.304C29.0041 3.36 29.0561 3.424 29.1041 3.496C29.1521 3.56 29.1921 3.628 29.2241 3.7C29.2881 3.852 29.3201 4.004 29.3201 4.156C29.3281 4.3 29.2721 4.476 29.1521 4.684C29.0161 4.908 28.8401 5.096 28.6241 5.248C28.4161 5.4 28.1881 5.496 27.9401 5.536C27.7641 5.568 27.5881 5.568 27.4121 5.536C27.2361 5.496 27.0681 5.416 26.9081 5.296C26.8601 5.336 26.8201 5.396 26.7881 5.476C26.7641 5.548 26.7561 5.616 26.7641 5.68C26.7801 5.792 26.8201 5.916 26.8841 6.052C26.9561 6.18 27.0321 6.268 27.1121 6.316C27.2481 6.372 27.4361 6.376 27.6761 6.328C27.9241 6.28 28.1841 6.208 28.4561 6.112C28.7361 6.008 29.0081 5.896 29.2721 5.776C29.5441 5.648 29.7761 5.54 29.9681 5.452C29.9681 5.5 29.9561 5.532 29.9321 5.548C29.9161 5.564 29.8921 5.592 29.8601 5.632C29.8201 5.672 29.7761 5.72 29.7281 5.776C29.6801 5.832 29.6241 5.88 29.5601 5.92C29.4801 5.968 29.4201 6.032 29.3801 6.112C29.3401 6.184 29.2641 6.252 29.1521 6.316C29.0001 6.396 28.8441 6.48 28.6841 6.568C28.5321 6.648 28.3801 6.724 28.2281 6.796C28.0761 6.86 27.9201 6.912 27.7601 6.952C27.6081 6.984 27.4561 6.992 27.3041 6.976C27.2001 6.96 27.1121 6.932 27.0401 6.892C26.9761 6.852 26.8961 6.792 26.8001 6.712C26.7521 6.672 26.6961 6.632 26.6321 6.592C26.5681 6.552 26.5201 6.512 26.4881 6.472C26.3521 6.272 26.2601 6.06 26.2121 5.836C26.1641 5.604 26.1521 5.376 26.1761 5.152C26.2081 4.92 26.2681 4.696 26.3561 4.48C26.4441 4.256 26.5601 4.052 26.7041 3.868C26.7841 3.764 26.8801 3.66 26.9921 3.556C27.1121 3.444 27.2401 3.348 27.3761 3.268C27.5201 3.18 27.6681 3.112 27.8201 3.064C27.9801 3.016 28.1401 2.996 28.3001 3.004C28.3641 3.012 28.4201 3.032 28.4681 3.064C28.5241 3.088 28.5841 3.116 28.6481 3.148C28.6881 3.164 28.7361 3.188 28.7921 3.22C28.8561 3.244 28.9081 3.272 28.9481 3.304ZM28.6001 4.012C28.5841 3.94 28.5401 3.876 28.4681 3.82C28.3961 3.764 28.3161 3.72 28.2281 3.688C28.1401 3.648 28.0521 3.624 27.9641 3.616C27.8761 3.608 27.8121 3.612 27.7721 3.628C27.7081 3.652 27.6321 3.696 27.5441 3.76C27.4641 3.816 27.3841 3.884 27.3041 3.964C27.2321 4.044 27.1601 4.132 27.0881 4.228C27.0241 4.316 26.9761 4.4 26.9441 4.48C26.9281 4.504 26.9121 4.544 26.8961 4.6C26.8881 4.648 26.8921 4.684 26.9081 4.708C27.0041 4.828 27.1481 4.888 27.3401 4.888C27.5241 4.888 27.7201 4.844 27.9281 4.756C28.1441 4.668 28.2961 4.576 28.3841 4.48C28.3921 4.464 28.4081 4.436 28.4321 4.396C28.4641 4.356 28.4921 4.312 28.5161 4.264C28.5401 4.216 28.5601 4.168 28.5761 4.12C28.6001 4.072 28.6081 4.036 28.6001 4.012Z" fill="black"/>
</svg>
